<svg width="141.712" height="48.687" viewBox="0 0 141.712 48.687" xmlns="http://www.w3.org/2000/svg"><g id="svgGroup" stroke-linecap="round" fill-rule="evenodd" font-size="9pt" stroke="#000" stroke-width="0.25mm" fill="#ffffff" style="stroke:#000;stroke-width:0.25mm;fill:#ffffff"><path d="M 39.387 45.1 L 39.387 47.893 L 27.993 47.893 L 27.993 45.894 L 15.901 28.533 L 11.362 28.533 L 11.362 43.418 A 1.298 1.298 0 0 0 11.519 44.029 A 1.835 1.835 0 0 0 11.727 44.338 A 1.336 1.336 0 0 0 12.377 44.766 A 1.977 1.977 0 0 0 12.791 44.846 L 16.504 45.1 L 16.504 47.893 L 0 47.893 L 0 45.1 L 3.428 44.846 A 1.909 1.909 0 0 0 3.847 44.764 Q 4.141 44.668 4.341 44.473 A 1.153 1.153 0 0 0 4.459 44.338 A 1.789 1.789 0 0 0 4.687 43.944 A 1.377 1.377 0 0 0 4.792 43.418 L 4.792 8.76 A 1.444 1.444 0 0 0 4.646 8.134 A 1.983 1.983 0 0 0 4.459 7.823 A 1.138 1.138 0 0 0 3.812 7.389 A 1.777 1.777 0 0 0 3.428 7.332 L 0 7.078 L 0 4.285 L 16.504 4.285 L 16.504 7.078 L 12.791 7.332 A 1.767 1.767 0 0 0 12.341 7.407 A 1.236 1.236 0 0 0 11.727 7.823 A 1.908 1.908 0 0 0 11.5 8.182 A 1.324 1.324 0 0 0 11.362 8.76 L 11.362 25.803 L 13.711 25.803 L 27.866 8.506 A 0.42 0.42 0 0 0 27.978 8.298 A 0.63 0.63 0 0 0 27.993 8.157 A 1.127 1.127 0 0 0 27.959 7.869 Q 27.86 7.492 27.464 7.411 A 1.045 1.045 0 0 0 27.358 7.395 L 24.026 7.078 L 24.026 4.285 L 37.8 4.285 L 37.8 7.078 L 36.769 7.189 A 216.159 216.159 0 0 0 34.658 7.427 Q 33.736 7.535 33.463 7.574 A 3.361 3.361 0 0 0 33.389 7.585 L 20.122 23.455 L 34.69 44.783 L 39.387 45.1 Z M 110.544 45.354 L 110.544 47.893 L 96.072 47.893 L 96.072 45.354 L 98.738 45.164 A 1.763 1.763 0 0 0 99.738 44.719 A 1.243 1.243 0 0 0 100.164 43.81 A 1.641 1.641 0 0 0 100.166 43.735 L 100.166 26.978 Q 100.166 24.185 98.833 22.36 A 3.794 3.794 0 0 0 97.273 21.145 Q 95.993 20.573 93.997 20.537 A 15.085 15.085 0 0 0 93.723 20.535 A 12.546 12.546 0 0 0 91.71 20.705 A 16.546 16.546 0 0 0 90.026 21.074 A 18.025 18.025 0 0 0 88.402 21.595 Q 87.431 21.961 86.646 22.407 L 86.646 43.735 A 1.987 1.987 0 0 0 86.717 44.291 Q 86.898 44.914 87.544 45.096 A 2.034 2.034 0 0 0 87.947 45.164 L 90.74 45.354 L 90.74 47.893 L 76.108 47.893 L 76.108 45.354 L 79.219 45.164 A 2.048 2.048 0 0 0 79.779 45.052 Q 80.583 44.759 80.583 43.735 L 80.583 4.666 L 75.728 4.666 L 75.728 2.507 L 84.043 0 L 86.646 0 L 86.646 19.805 Q 87.444 19.309 88.564 18.717 A 57.905 57.905 0 0 1 89.692 18.138 A 32.725 32.725 0 0 1 93.628 16.488 Q 95.449 15.858 96.973 15.784 A 8.253 8.253 0 0 1 97.373 15.774 A 9.581 9.581 0 0 1 100.712 16.338 A 8.528 8.528 0 0 1 103.657 18.186 A 7.466 7.466 0 0 1 105.557 21.234 Q 106.196 23.096 106.196 25.613 L 106.196 43.735 Q 106.196 44.338 106.625 44.719 A 1.763 1.763 0 0 0 107.625 45.164 L 110.544 45.354 Z M 141.711 40.688 L 141.711 44.656 A 33.326 33.326 0 0 1 135.824 47.512 A 18.393 18.393 0 0 1 129.365 48.687 A 15.974 15.974 0 0 1 121.986 46.925 A 13.466 13.466 0 0 1 116.826 42.234 A 16.358 16.358 0 0 1 116.416 41.577 Q 114.29 37.991 114.29 32.563 A 22.112 22.112 0 0 1 114.722 28.089 A 16.761 16.761 0 0 1 116.257 23.708 A 14.771 14.771 0 0 1 119.952 19.077 A 14.21 14.21 0 0 1 121.685 17.853 A 14.62 14.62 0 0 1 128.2 15.825 A 17.836 17.836 0 0 1 129.556 15.774 A 15.491 15.491 0 0 1 133.17 16.169 Q 136.606 16.993 138.665 19.535 A 13.391 13.391 0 0 1 141.383 25.513 A 18.783 18.783 0 0 1 141.711 29.104 L 141.711 29.945 A 7.596 7.596 0 0 1 141.691 30.509 A 6.024 6.024 0 0 1 141.648 30.913 L 120.574 30.913 Q 120.574 33.389 121.097 35.848 A 14.151 14.151 0 0 0 122.42 39.542 A 13.071 13.071 0 0 0 122.859 40.308 Q 124.097 42.307 126.191 43.513 Q 128.082 44.601 130.825 44.708 A 15.594 15.594 0 0 0 131.428 44.719 A 12.32 12.32 0 0 0 136.788 43.474 A 14.18 14.18 0 0 0 136.871 43.434 Q 139.521 42.148 141.711 40.688 Z M 71.815 37.562 A 19.192 19.192 0 0 0 72.522 32.278 A 21.993 21.993 0 0 0 72.458 30.593 A 18.328 18.328 0 0 0 70.713 23.962 A 14.463 14.463 0 0 0 65.476 17.996 A 13.34 13.34 0 0 0 61.168 16.199 A 17.73 17.73 0 0 0 57.192 15.774 A 18.623 18.623 0 0 0 54.323 15.988 A 14.284 14.284 0 0 0 48.893 17.964 Q 45.386 20.154 43.497 23.899 A 17.027 17.027 0 0 0 42.275 27.088 A 19.625 19.625 0 0 0 41.609 32.278 A 21.612 21.612 0 0 0 41.726 34.551 A 17.532 17.532 0 0 0 43.481 40.657 A 14.443 14.443 0 0 0 48.813 46.528 A 13.733 13.733 0 0 0 52.847 48.212 A 17.438 17.438 0 0 0 57.002 48.687 A 18.495 18.495 0 0 0 59.852 48.474 A 14.143 14.143 0 0 0 65.238 46.512 Q 68.713 44.338 70.618 40.609 A 16.827 16.827 0 0 0 71.815 37.562 Z M 65.762 32.214 A 23.829 23.829 0 0 0 65.329 27.602 A 20.667 20.667 0 0 0 64.825 25.581 A 13.595 13.595 0 0 0 63.734 22.958 A 10.329 10.329 0 0 0 61.969 20.598 A 6.496 6.496 0 0 0 57.579 18.705 A 8.61 8.61 0 0 0 57.129 18.694 A 7.792 7.792 0 0 0 54.78 19.033 A 6.317 6.317 0 0 0 52.194 20.598 A 10.431 10.431 0 0 0 50.184 23.437 A 13.872 13.872 0 0 0 49.353 25.581 A 22.182 22.182 0 0 0 48.49 30.467 A 26.149 26.149 0 0 0 48.433 32.214 A 23.537 23.537 0 0 0 48.938 37.158 A 20.906 20.906 0 0 0 49.369 38.832 A 13.678 13.678 0 0 0 50.441 41.432 A 10.306 10.306 0 0 0 52.225 43.831 A 6.496 6.496 0 0 0 56.615 45.723 A 8.61 8.61 0 0 0 57.065 45.735 Q 60.049 45.735 61.969 43.831 A 10.538 10.538 0 0 0 63.985 40.991 A 14.038 14.038 0 0 0 64.825 38.848 A 21.892 21.892 0 0 0 65.71 33.854 A 25.783 25.783 0 0 0 65.762 32.214 Z M 59.541 1.079 L 67.729 12.092 L 63.826 12.092 L 57.129 5.649 L 50.369 12.092 L 46.465 12.092 L 54.653 1.079 L 59.541 1.079 Z M 138.855 5.776 L 128.953 12.092 L 125.271 12.092 L 133.904 2 A 8.008 8.008 0 0 1 134.518 1.347 Q 134.859 1.026 135.203 0.789 A 4.697 4.697 0 0 1 135.316 0.714 A 2.487 2.487 0 0 1 135.961 0.427 Q 136.272 0.335 136.648 0.292 A 6.301 6.301 0 0 1 137.363 0.254 Q 139.045 0.254 139.696 1.222 A 4.129 4.129 0 0 1 140.141 2.072 A 3.115 3.115 0 0 1 140.347 3.174 A 3.2 3.2 0 0 1 140.262 3.927 A 2.463 2.463 0 0 1 139.934 4.697 A 3.732 3.732 0 0 1 138.896 5.748 A 4.261 4.261 0 0 1 138.855 5.776 Z M 120.923 27.993 L 135.205 27.993 L 135.205 26.565 A 11.068 11.068 0 0 0 134.931 24.041 A 8.176 8.176 0 0 0 133.666 21.169 A 4.975 4.975 0 0 0 130.446 19.125 A 7.872 7.872 0 0 0 128.889 18.979 A 7.155 7.155 0 0 0 123.644 21.171 A 9.089 9.089 0 0 0 123.43 21.392 A 8.807 8.807 0 0 0 121.476 24.828 Q 121.084 26.08 120.954 27.564 A 16.248 16.248 0 0 0 120.923 27.993 Z" vector-effect="non-scaling-stroke"/></g></svg>